ply
format ascii 1.0
comment Demo reconstruction mesh. Replace with the aligned proposed-method mesh.
element vertex 24
property float x
property float y
property float z
element face 36
property list uchar int vertex_indices
end_header
-0.49 -0.79 -0.34
0.50 -0.80 -0.35
0.49 0.79 -0.34
-0.50 0.80 -0.35
-0.49 -0.79 0.34
0.50 -0.80 0.35
0.49 0.79 0.34
-0.50 0.80 0.35
-1.98 -0.88 -0.07
-0.60 -0.89 -0.07
-0.60 0.89 -0.07
-1.98 0.88 -0.07
-1.98 -0.88 0.07
-0.60 -0.89 0.07
-0.60 0.89 0.07
-1.98 0.88 0.07
0.60 -0.89 -0.07
1.98 -0.88 -0.07
1.98 0.88 -0.07
0.60 0.89 -0.07
0.60 -0.89 0.07
1.98 -0.88 0.07
1.98 0.88 0.07
0.60 0.89 0.07
3 0 1 2
3 0 2 3
3 4 6 5
3 4 7 6
3 0 4 5
3 0 5 1
3 1 5 6
3 1 6 2
3 2 6 7
3 2 7 3
3 3 7 4
3 3 4 0
3 8 9 10
3 8 10 11
3 12 14 13
3 12 15 14
3 8 12 13
3 8 13 9
3 9 13 14
3 9 14 10
3 10 14 15
3 10 15 11
3 11 15 12
3 11 12 8
3 16 17 18
3 16 18 19
3 20 22 21
3 20 23 22
3 16 20 21
3 16 21 17
3 17 21 22
3 17 22 18
3 18 22 23
3 18 23 19
3 19 23 20
3 19 20 16
